<svg width="800" height="600" viewBox="0 0 800 600" fill="none" xmlns="http://www.w3.org/2000/svg">
<path d="M83.028 108.914L83.228 105.544L82.511 101.788L80.738 95.949L84.591 96.795L88.198 98.635L87.437 94.446L83.871 86.248L84.084 84.149V82.559L78.686 82.282L77.999 80.018L80.175 76.665L83.34 73.208L84.248 72.56L85.279 72.344L87.52 72.404L88.886 71.842L91.119 69.111L92.321 68.048L94.718 67.089L96.501 66.648L98.26 65.818L100.567 63.7L99.193 61.037L98.97 58.66L100.033 56.974L102.618 56.317L104.172 56.559L106.577 57.649L108.115 57.891L108.786 57.441L110.185 55.443L110.913 55.002L131.558 53.419L136.809 54.154L141.995 56.022L161.184 65.973L166.82 67.114L172.169 65.031L176.218 67.988L179.113 69.319L188.021 69.63L188.417 69.521L189.784 76.73L193.789 82.898L200.048 84.709L206.068 87.106L203.845 93.326L202.105 99.688L202.681 106.707L203.169 113.735L198.287 113.242L197.025 117.764L198.266 125.491L195.97 132.778L192.49 131.6L189.514 133.687L183.193 133.095L176.924 129.424L172.634 129.977L168.723 131.982L162.199 132.535L156.091 130.261L152.632 127.68L149.967 131.072L141.693 127.171L134.037 122.102L131.009 116.583L125.955 115.147L104.805 117.756L85.296 109.49L83.028 108.914Z" fill="#89B8E4" stroke="#808080" stroke-width="0.5" stroke-linecap="round" stroke-linejoin="round"/>
<path d="M82.329 187.184L81.482 186.321L77.898 181.288L76.901 177.064L78.22 175.729L83.643 172.643L85.554 171.144L88.099 164.686L89.211 163.476L91.507 158.61L91.642 149.149L89.242 132.575L83.622 119.298L82.697 114.48L83.027 108.914L85.294 109.492L104.803 117.758L125.953 115.149L131.007 116.585L134.035 122.104L141.691 127.173L149.965 131.074L145.285 138.804L142.807 147.764L143.248 152.55L141.716 157.007L139.285 170.472L129.458 174.839L131.453 179.413L134.845 183.133L131.417 186.705L127.298 189.199L122.509 187.596L117.596 186.267L115.129 189.204L113.638 193.071L109.384 194.64L105.327 197.084L101.985 200.261L88.961 193.945L82.329 187.184Z" fill="#AC8FC7" stroke="#808080" stroke-width="0.5" stroke-linecap="round" stroke-linejoin="round"/>
<path d="M101.986 200.261L105.328 197.084L109.385 194.64L113.639 193.071L115.13 189.204L117.597 186.267L122.51 187.596L127.299 189.199L131.418 186.705L134.846 183.133L143.177 188.477L149.394 196.757L158.364 201.246L167.189 205.942L165.792 212.321L165.387 218.863L159.071 223.688L151.415 224.12L145.11 220.29L138.29 219.202L134.223 226.824L131.865 235.838L128.717 242.528L122.495 244.346L116.813 244.919L112.377 248.932L107.391 259.479L105.703 270.89L109.188 275.304L106.778 285.587L111.317 288.532L115.399 292.088L116.843 296.936L116.833 302.121L120.562 306.09L125.995 307.366L128.317 313.361L125.455 320.069L112.828 317.35L99.937 316.347L86.365 314.233L75.217 312.908L80.61 309.579L83.425 307.273L85.835 303.343L87.206 299.778L88.193 295.88L88.494 291.916L86.873 283.621L86.665 275.062L85.554 271.155L84.058 269.245L79.456 265.043L77.617 262.887L74.771 256.905L72.932 255.42L68.226 255.262L63.229 256.965L59.624 257.527L59.032 253.864L62.502 251.527L72.817 248.754L75.456 247.127L84.171 237.494L90.186 229.087L93.23 226.361L100.044 221.487L102.579 217.744L103.607 214.11L104.521 201.493L101.986 200.261Z" fill="#FFEB64" stroke="#808080" stroke-width="0.5" stroke-linecap="round" stroke-linejoin="round"/>
<path d="M73.834 313.761L75.217 312.907L86.365 314.232L99.937 316.346L112.828 317.349L125.455 320.068L118.926 321.855L112.491 323.904L111.525 326.236L111.847 328.916L110.486 333.671L108.232 338.088L113.873 356.486L134.504 364.541L142.212 368.013L149.484 372.469L157.27 374.444L164.973 371.435L174.592 372.033L179.812 381.782L185.411 386.389L192.641 385.889L185.977 394.737L175.381 397.575L165.242 394.139L156.334 396.042L159.295 408.1L162.437 419.638L157.819 420.258L152.729 418.872L149.057 422.79L148.179 428.473L142.17 423.442L136.415 418.063L129.455 415.253L122.111 413.4L104.992 404.975L88.366 395.624L87.921 395.438L88.041 395.232L90.408 391.175L89.972 390.566L88.123 388.918L85.256 387.031L74.453 382.974L66.87 377.931L65.239 376.054L62.185 371.555L60.492 370.059L52.649 368.095L49.636 366.441L48.431 362.544L49.189 360.231L50.695 359.371L51.765 358.217L51.266 355.054L49.967 353.056L31.788 334.471L30 331.025L33.459 328.427L40.928 326.853L56.042 329.637L63.823 326.984L66.441 324.178L70.575 317.144L73.317 314.081L73.834 313.761Z" fill="#8EC79A" stroke="#808080" stroke-width="0.5" stroke-linecap="round" stroke-linejoin="round"/>
<path d="M76.959 448.798L79.364 442.443L80.091 438.804L79.644 432.699L79.779 429.201L79.301 426.849L77.14 420.824L76.839 418.835L77.4 414.694L78.989 410.743L87.919 395.439L88.364 395.625L104.99 404.976L122.109 413.401L129.453 415.254L136.413 418.064L142.168 423.443L148.177 428.474L154.363 432.043L154.618 440.608L154.805 444.453L154.416 448.232L153.315 450.48L151.3 451.283L149.202 452.032L147.815 453.894L152.142 464.636L162.052 472.781L167.132 471.56L173.157 471.848L176.367 479.189L176.362 487.342L176.502 487.868L176.507 487.888L176.291 487.708L175.988 489.228L175.677 489.766L174.916 490.432H176.29L175.48 492.2L174.433 493.549L173.149 494.429L171.554 494.736L170.818 495.598L169.509 499.782L168.74 501.302L166.286 504.828L159.513 524.544L157.435 528.375L149.125 539.977L147.113 539.039L145.379 537.401L145.281 536.522L143.318 534.833L129.495 512.093L126.133 508.465L119.368 505.853L103.312 508.004L96.441 506.322L98.379 504.828L104.792 498.194L106.166 495.513L105.871 490.995L105.029 487.818L101.929 481.83L99.753 478.533L99.328 477.32L99.189 474.8L100.563 466.853L99.066 463.186L95.532 459.109L88.195 453.031L76.959 448.798ZM127.565 552.392L124.211 550.491L124.17 545.98L126.01 540.709L128.251 536.521L131.089 538.116L133.976 540.214L139.096 545.118L135.996 546.09L130.998 551.198L127.565 552.392Z" fill="#F8A758" stroke="#808080" stroke-width="0.5" stroke-linecap="round" stroke-linejoin="round"/>
<path d="M702.568 421.452L712.956 421.144L715.688 422.111L717.717 424.806L719.966 428.938L721.438 432.728L721.103 434.379L718.052 433.703L711.566 430.743L708.188 430.067L704.605 430.503L698.38 432.479L694.961 432.941L687.894 431.068L682.864 426.534L679.625 420.887L677.866 415.701L680.852 414.819L684.377 415.495L687.87 417.207L690.855 419.364L693.178 420.185L702.568 421.452ZM678.226 250.596L679.87 251.765L681.71 252.797L685.293 253.089L687.354 253.863L710.715 275.521L719.303 285.933L731.425 295.157L740.112 301.202L742.582 302.301L743.874 303.142L752.953 311.88L764.453 318.849L769.999 327.292L768.903 335.561L750.008 364.232L748.675 365.38L747.35 366.803L746.736 368.808L747.104 376.125L746.736 378.215L744.454 381.787L741.141 383.475L736.986 383.972H732.209L728.528 382.738L720.561 377.512L717.665 376.647L714.344 378.866L714.867 382.25L715.939 386.259L714.229 390.37L711.759 393.658L710.197 397.469L707.097 409.711L705.976 411.885L703.694 412.707L686.7 414.05L683.232 412.826L682.774 405.122L677.883 394.933L671.192 385.024L665.27 378.214L658.964 373.862L654.908 372.143L658.499 363.589L662.057 354.015L664.784 347.923L664.566 341.351L660.338 336.101L655.274 331.526L651.378 324.504L648.044 316.925L646.522 312.554L647.327 307.976L651.804 305.31L657.169 304.454L667.458 296.309L671.613 284.355L666.159 273.963L667.712 265.096L668.86 262.787L668.725 259.932L674.47 255.467L678.226 250.596Z" fill="#E89BBD" stroke="#808080" stroke-width="0.5" stroke-linecap="round" stroke-linejoin="round"/>
<path d="M592.472 241.911L600.21 243.992L603.384 243.768L607.163 241.635L605.912 240.087L603.409 238.591L603.384 236.544L606.991 235.52L610.132 238.359L614.361 245.213L617.093 246.795L620.136 247.706L622.737 248.841L624.095 251.102L626.5 249.142L631.408 246.881L633.715 245.213L632.177 243.51L632.913 243.097L634.721 243.045L636.447 242.443L638.549 240.258L639.187 239.398L639.98 239.338L647.186 239.725L651.399 240.577L655.178 241.927L658.532 243.767L658.916 244.352L658.924 245.117L659.088 245.917L659.906 246.639L664.02 248.084L664.388 248.015L671.578 249.528L676.069 249.7L677.885 250.354L678.229 250.595L674.473 255.467L668.728 259.932L668.863 262.787L667.715 265.096L666.162 273.963L671.616 284.355L667.461 296.309L657.172 304.454L651.807 305.31L647.33 307.976L646.525 312.554L648.047 316.925L639.264 320.342L634.2 330.089L626.492 339.844L616.405 346.09L617.89 340.596L618.924 335.733L613.024 335.118L606.708 336.022L600.989 331.823L596.107 326.479L592.824 325.569L589.458 325.907L586.7 324.223L584.067 322.294L586.487 314.513L589.972 306.501L590.85 297.495L587.744 289.021L576.213 277.075L568.993 262.391L580.363 260.377L596.937 264.247L591.405 254.296L592.356 242.743L592.366 242.678L592.472 241.911Z" fill="#BACE6B" stroke="#808080" stroke-width="0.5" stroke-linecap="round" stroke-linejoin="round"/>
<path d="M510.226 224.791L512.722 226.59L523.813 224.895L527.641 226.306L532.418 224.774L541.874 228.439L546.864 227.88L545.637 226.822L544.026 225.858L542.104 225.144L539.879 224.86V223.414L550.611 222.846L553.736 223.414L557.302 226.03L560.067 232.525L563.461 235.097L566.896 236.009L573.808 236.861L592.473 241.91L592.365 242.674L592.355 242.739L591.404 254.292L596.936 264.243L580.362 260.373L568.992 262.387L576.212 277.071L587.743 289.017L590.849 297.491L589.971 306.497L586.486 314.509L584.066 322.29L577.21 327.068L573.948 334.939L569.647 340.516L563.928 347.219L560.864 340.314L558.065 333.277L553.474 326.321L548.893 319.363L547.48 310.774L546.337 302.031L542.738 295.352L542.748 288.039L546.327 283.119L550.519 278.755L554.648 276.207L558.476 273.566L554.762 269.839L547.475 268.89L537.643 263.509L527.551 258.52L516.103 252.739L506.821 244.462L509.512 238.422L510.681 231.982L510.094 226.35L510.226 224.791Z" fill="#AC8FC7" stroke="#808080" stroke-width="0.5" stroke-linecap="round" stroke-linejoin="round"/>
<path d="M479.954 182.199L480.716 182.941L487.595 185.732L491.668 185.06L499.471 182.071L503.495 181.399L512.541 181.029L516.549 180.176L520.663 178.505L526.601 174.541L528.899 174.041L530.977 174.489L535.238 176.583L537.88 177.048L542.747 175.833L544.857 175.609L546.027 175.652L547.115 175.91L547.908 176.556L548.235 177.78L548.873 178.814L550.264 178.418L552.472 177.048L564.136 181.804L567.571 184.285L569.845 179.693L573.542 176.298L582.67 171.266L588.543 169.474L589.934 171.921L588.38 176.97L585.419 182.967L589.427 184.44L593.958 184.414L598.359 183.277L602.007 181.399L603.201 186.042L600.584 189.686L596.977 192.993L595.153 196.636L594.286 200.468L591.947 203.921L588.438 206.452L584.046 207.537L568.268 204.644L550.985 205.961L546.912 204.799L539.461 201.088L513.835 197.919L510.948 198.711L509.844 201.544L509.19 211.608L507.685 220.197L508.307 223.415L510.228 224.791L510.093 226.354L510.68 231.986L509.511 238.426L506.82 244.466L500.972 240.119L494.604 236.509L488.828 232.21L483.11 227.829L487.063 224.065L487.785 217.448L490.501 214.07L493.664 211.966L498.998 208.408L498.988 202.684L486.824 199.797L477.007 204.466L475.667 199.485L476.919 194.247L478.794 188.948L479.521 183.27L479.954 182.199Z" fill="#8EC79A" stroke="#808080" stroke-width="0.5" stroke-linecap="round" stroke-linejoin="round"/>
<path d="M415.112 111.523L421.749 104.439L425.552 102.669L436.693 102.842L442.149 102.315L444.619 102.626L447.678 104.431L454.532 111.683L456.691 116.612L456.576 121.998L453.28 133.656L457.304 135.347L458.834 139.108L458.777 148.785L459.268 152.993L460.552 156.356L473.942 176.352L479.953 182.201L479.518 183.27L478.791 188.948L476.916 194.247L475.664 199.485L477.004 204.466L463.079 201.782L449.575 195.445L435.769 191.967L425.989 183.713L423.252 178.795L417.144 178.013L410.158 172.919L407.67 163.993L407.088 156.729L404.72 150.016L397.9 145.394L390.769 141.073L391.382 135.015L392.571 129.569L396.861 129.295L401.556 129.618L411.503 123.832L415.237 112.794L415.112 111.523Z" fill="#AC8FC7" stroke="#808080" stroke-width="0.5" stroke-linecap="round" stroke-linejoin="round"/>
<path d="M359.093 95.084L366.439 102.841L369.776 105.216L373.44 107.081L377.562 108.324L386.731 109.3L394.101 111.959L407.597 114.618L410.607 114.566L412.619 113.815L414.41 112.27L415.109 111.524L415.235 112.794L411.501 123.832L401.554 129.618L396.859 129.295L392.569 129.569L391.38 135.015L390.767 141.073L388.627 140.662L386.456 140.689L381.88 133.217L376.052 128.1L370.027 131.568L365.903 137.572L361.156 140.793L358.782 135.135L355.453 133.513L351.817 132.154L345.112 140.453L345.18 154.587L344.416 166.509L340.074 178.903L334.418 180.008L330.377 169.863L326.253 170.75L321.745 172.512L315.398 171.888L310.609 168.309L313.59 166.082L316.686 163.712L316.738 159.037L316.167 154.225L317.32 148.93L320.062 144.396L323.064 141.028L323.916 136.739L328.362 126.855L330.008 115.615L331.53 111.4L334.677 108.56L337.305 108.577L339.829 109.202L343.418 108.725L346.986 107.771L350.58 107.798L353.961 106.745L356.927 101.092L359.093 95.084Z" fill="#89B8E4" stroke="#808080" stroke-width="0.5" stroke-linecap="round" stroke-linejoin="round"/>
<path d="M188.416 69.521L190.367 68.982L190.915 67.348L191.021 65.187L192.084 62.974L194.448 62.057L196.141 64.028L198.374 69.63L199.944 68.662L201.13 67.625L201.956 66.432L202.496 65.031L200.786 64.495L200.426 64.236L200.393 63.683L199.747 62.248L202.896 63.476L205.538 63.329L208.229 62.655L211.476 62.249L213.537 60.675L217.259 53.68L219.713 52.097L222.772 51.319L229.291 48.076L232.816 47.609L236.063 48.448L239.155 50.264L240.824 52.928L239.793 56.318L243.67 57.892H245.167L244.161 54.615L243.67 53.422L253.395 55.005L256.258 54.711L262.196 53.319L264.503 53.423L266.973 55.083L275.815 65.64L276.551 67.663L275.479 69.634L283.053 69.686L285.949 71.112L293.605 77.542L300.893 81.249L308.639 83.971L317.604 85.319L329.742 85.414L330.756 84.801L331.787 83.375L334.216 81.699L336.964 80.29L338.984 79.659L346.828 82.13L359.088 95.087L356.925 101.095L353.959 106.748L350.578 107.801L346.984 107.774L343.416 108.728L339.827 109.205L337.303 108.58L334.675 108.563L331.528 111.403L330.006 115.618L328.36 126.858L323.914 136.742L311.672 132.863L305.766 123.324L301.59 113.223L290.859 108.476L290.132 120.935L281.146 121.346L276.674 117.378L272.145 113.525L266.572 111.924L260.308 110.46L251.842 109.342L244.269 105.537L237.486 100.119L229.331 97.553L223.898 96.133L219.426 92.738L212.928 89.557L206.062 87.11L200.042 84.713L193.783 82.902L189.778 76.734L188.416 69.521Z" fill="#F8A758" stroke="#808080" stroke-width="0.5" stroke-linecap="round" stroke-linejoin="round"/>
<path d="M239.909 401.944L239.87 401.929L238.619 400.225L237.564 398.119L236.255 396.252L234.153 394.676L232.018 393.751L223.299 391.859L219.258 391.782L216.117 393.041L214.857 396.252L214.432 398.024L212.649 401.098L212.224 403.444L212.608 406.141L213.59 407.622L214.923 408.966L216.346 411.277L219.626 422.719L220.681 424.678L220.714 427.185L216.804 433.105L213.467 441.555L194.441 469.27L192.772 474.021L191.938 475.713L190.032 477.029L186.032 479.105L183.562 481.181L181.795 483.231L180.421 485.768L179.161 489.261L177.672 488.74L177.099 488.381L176.506 487.887L176.501 487.867L176.361 487.341L176.366 479.188L173.156 471.847L167.131 471.559L162.051 472.78L152.141 464.635L147.814 453.893L149.201 452.031L151.299 451.282L153.314 450.479L154.415 448.231L154.804 444.452L154.617 440.607L154.362 432.042L148.176 428.473L149.054 422.79L152.726 418.872L157.816 420.258L162.434 419.638L159.292 408.1L156.331 396.042L165.239 394.139L175.378 397.575L185.974 394.737L192.638 385.889L193.235 379.063L196.757 373.53L200.123 371.419L203.374 369.194L205.659 365.717L208.895 363.088L215.06 360.846L220.249 357.052L223.391 351.875L226.076 346.398L230.029 351.423L232.065 354.847L232.699 361.564L228.642 366.832L222.472 372.116L223.474 374.537L224.409 376.985L226.315 378.416L228.824 379.373L235.311 381.19L241.159 382.588L240.686 385.639L241.372 390.115L242.904 396.896L239.909 401.944Z" fill="#BACE6B" stroke="#808080" stroke-width="0.5" stroke-linecap="round" stroke-linejoin="round"/>
<path d="M317.549 399.906L314.925 398.205L314.05 396.253L314.541 394.164L315.727 393.205L317.093 392.477L318.148 391.03L319.08 386.799L319.203 382.354L318.655 378.456L317.534 375.937L313.117 370.419L310.459 368.525L305.805 366.725L301.838 365.799L296.824 365.413L292.53 366.57L290.714 370.246L291.401 374.65L290.894 376.415L284.923 382.3L283.279 383.354L281.111 383.971L278.763 383.885L274.583 382.583L272.734 382.403L271.18 383.011L268.383 384.981L266.502 385.409L263.95 385.083L263.058 385.631L261.07 387.498L260.514 388.286L259.254 390.889L259.009 391.805L258.469 392.636L255.77 393.527L254.772 394.024L249.423 400.36L246.568 402.055L241.799 402.646L239.908 401.942L242.906 396.895L241.374 390.114L240.688 385.638L241.161 382.587L235.313 381.189L228.826 379.372L226.317 378.415L224.411 376.984L223.476 374.536L222.474 372.115L228.644 366.831L232.701 361.563L232.067 354.846L230.031 351.422L234.28 349.821L234.348 346.086L229.003 342.52L222.666 341.371L210.117 337.036L200.57 327.417L209.4 325.053L214.693 317.201L217.981 315.953L221.778 314.165L221.321 311.451L219.986 309.146L222.084 306.29L222.323 303.614L221.051 295.67L227.59 293.625L229.283 297.273L232.207 298.472L234.955 295.839L236.524 292.251L236.628 281.381L237.968 270.917L240.409 265.624L245.343 262.18L248.174 259.478L248.979 255.384L253.186 253.31L254.869 248.784L265.423 255.963L267.688 275.435L276.258 287.038L288.526 293.271L296.151 302.507L293.305 314.569L299.081 325.93L303.288 336.601L306.259 338.415L307.781 341.546L311.271 344.895L315.935 346.545L322.625 350.912L329.112 354.222L333.288 361.385L337.713 370.13L339.043 374.004L337.09 377.861L335.522 383.529L336.041 389.512L328.743 397.766L317.549 399.906Z" fill="#F8A758" stroke="#808080" stroke-width="0.5" stroke-linecap="round" stroke-linejoin="round"/>
<path d="M397.755 407.824L393.383 407.947L389.637 408.58L387.15 409.967L383.6 407.784L379.821 406.988L354.096 407.091L349.777 408.452L341.507 413.125L336.812 414.143L322.882 414.109L319.651 412.825L319.373 411.019L320.829 409.607L322.71 408.374L323.642 407.09L323.069 404.813L321.703 403.563L320.288 402.758L318.767 400.695L317.547 399.904L328.74 397.765L336.038 389.511L335.519 383.528L337.087 377.86L339.04 374.003L337.71 370.129L343.143 362.119L352.975 359.24L358.018 355.762L362.339 351.097L372.057 355.311L379.993 362.969L386.376 365.962L385.992 371.039L380.788 374.031L379.791 379.482L383.494 384.176L387.525 388.919L388.943 391.605L390.449 394.242L393.077 396.808L395.653 399.026L396.505 403.761L397.755 407.824Z" fill="#8EC79A" stroke="#808080" stroke-width="0.5" stroke-linecap="round" stroke-linejoin="round"/>
<path d="M433.209 369.236L430.682 370.521L426.191 374.497L422.805 379.809L421.472 386.131L420.409 387.844L415.788 390.276L414.733 391.809L413.915 394.13L407.126 400.432L402.243 406.039L399.486 408.393L398.259 407.811L397.756 407.825L396.509 403.764L395.657 399.029L393.081 396.811L390.453 394.245L388.947 391.608L387.529 388.922L383.498 384.179L379.795 379.485L380.792 374.034L385.996 371.042L386.38 365.965L379.997 362.972L372.061 355.314L362.343 351.1L359.325 344.839L357.871 338.005L360.063 330.559L359.201 323.117L359.892 314.012L363.658 305.438L371.085 305.569L373.801 297.533L376.647 291.524L383.524 288.225L386.848 292.446L390.349 296.503L395.559 299.415L400.41 303.008L400.571 312.449L406.014 321.217L404.264 325.908L403.293 331.083L405.448 338.545L409.162 345.27L414.101 348.934L417.835 353.474L418.375 357.094L420.686 359.571L425.231 359.43L429.75 359.599L432.3 363.36L432.466 367.915L433.209 369.236Z" fill="#FBD165" stroke="#808080" stroke-width="0.5" stroke-linecap="round" stroke-linejoin="round"/>
<path d="M437.852 367.341L435.319 368.165L433.209 369.236L432.467 367.911L432.301 363.356L429.751 359.595L425.232 359.426L420.687 359.567L418.376 357.09L417.836 353.47L414.102 348.93L409.163 345.266L405.449 338.541L403.294 331.079L404.265 325.904L406.015 321.213L400.572 312.445L400.411 303.004L406.072 305.037L409.754 311.649L416.158 314.014L422.749 315.796L432.254 317.654L440.783 313.709L441.318 311.769L442.243 309.889L444.611 309.088L447.156 308.968L451.82 309.164L456.479 309.404L461.927 313.677L466.487 318.821L469.271 322.493L470.403 326.677L474.626 330.752L476.236 336.711L485.507 327.037L497.188 322.711L501.572 321.779L505.358 319.327L512.188 317.861L519.382 320.607L516.873 323.358L515.72 326.6L516.852 326.693L517.932 326.214L518.836 331.493L518.462 336.776L514.328 342.118L511.092 347.639L519.054 356.115L530.855 358.477L529.567 365.204L528.874 370.74L518.446 363.543L513.996 361.177L511.043 360.834L509.767 362.805L509.873 365.17L510.233 367.544L509.677 369.472L507.878 370.063L505.056 370.054L502.463 369.557L501.326 368.803L497.948 363.061L496.345 361.518L494.848 361.038L463.872 357.644L458.261 357.91L458.575 351.643L452.966 350.799L449.195 351.828L445.372 351.463L442.9 347.581L440.448 344.102L435.067 347.119L434.537 353.135L439.004 359.721L437.852 367.341Z" fill="#BACE6B" stroke="#808080" stroke-width="0.5" stroke-linecap="round" stroke-linejoin="round"/>
<path d="M458.263 357.914L457.404 357.957L454.157 358.917L447.842 361.968L442.64 365.482L440.669 366.425L437.853 367.341L439.006 359.726L434.539 353.14L435.069 347.124L440.45 344.107L442.902 347.586L445.374 351.468L449.197 351.833L452.968 350.804L458.577 351.648L458.263 357.914Z" fill="#F8A758" stroke="#808080" stroke-width="0.5" stroke-linecap="round" stroke-linejoin="round"/>
<path d="M617.861 373.777L614.058 373.1L605.249 370.127L601.257 369.476L597.789 368.345L591.973 363.409L587.532 362.278L583.655 363.084L579.712 364.421L575.729 364.695L571.697 362.278L567.493 366.16L541.376 368.165L533.573 371.036L529.451 371.139L528.878 370.743L529.571 365.207L530.859 358.48L519.058 356.118L511.096 347.642L514.332 342.121L518.466 336.779L518.84 331.496L517.936 326.217L516.856 326.696L515.724 326.603L516.877 323.361L519.386 320.61L530.849 300.525L542.748 288.043L542.738 295.356L546.337 302.035L547.48 310.778L548.893 319.367L553.474 326.325L558.065 333.281L560.864 340.318L563.928 347.223L569.647 340.52L573.948 334.943L577.21 327.072L584.066 322.294L586.699 324.223L589.457 325.907L592.823 325.569L596.106 326.479L600.988 331.823L606.707 336.022L613.023 335.118L618.923 335.733L617.889 340.596L616.404 346.09L613.178 351.404L610.56 356.989L611.921 359.776L614.331 361.828L616.835 367.901L617.861 373.777Z" fill="#89B8E4" stroke="#808080" stroke-width="0.5" stroke-linecap="round" stroke-linejoin="round"/>
<path d="M654.907 372.144L650.612 370.324L642.203 369.133L632.51 373.1L617.861 373.777L616.832 367.899L614.328 361.826L611.918 359.774L610.557 356.987L613.175 351.402L616.401 346.088L626.488 339.842L634.196 330.087L639.26 320.34L648.043 316.923L651.377 324.502L655.273 331.524L660.337 336.099L664.565 341.349L664.783 347.921L662.056 354.013L658.498 363.587L654.907 372.144Z" fill="#FBD165" stroke="#808080" stroke-width="0.5" stroke-linecap="round" stroke-linejoin="round"/>
<path d="M206.066 87.106L212.932 89.553L219.43 92.734L223.902 96.129L229.335 97.549L237.49 100.115L244.273 105.533L251.846 109.338L260.312 110.456L258.998 117.56L256.074 124.027L250.927 124.701L245.936 121.177L246.294 125.44L247.904 129.254L250.813 130.657L253.799 132.498L253.612 138.327L252.215 144.428L256.801 147.878L256.001 151.634L247.161 151.689L238.866 148.13L237.074 150.386L235.173 153.135L232.269 153.518L229.324 152.85L223.476 150.386L217.887 147.287L203.084 144.631L195.968 132.778L198.264 125.491L197.023 117.764L198.285 113.242L203.167 113.735L202.679 106.707L202.103 99.688L203.843 93.326L206.066 87.106Z" fill="#FFEB64" stroke="#808080" stroke-width="0.5" stroke-linecap="round" stroke-linejoin="round"/>
<path d="M195.969 132.778L203.085 144.631L217.888 147.287L215.239 150.901L214.808 155.1L217.462 156.978L219.186 159.069L211.483 161.669L204.211 165.128L200.414 165.33L196.633 164.936L193.537 166.988L191.06 169.861L187.393 172.898L184.573 176.75L183.903 183.156L183.337 189.682L184.054 194.134L187.378 197.273L187.659 203.714L186.594 210.361L175.889 210.252L167.189 205.939L158.364 201.243L149.394 196.754L143.177 188.474L134.846 183.13L131.454 179.41L129.459 174.836L139.286 170.469L141.717 157.004L143.249 152.547L142.808 147.761L145.286 138.801L149.966 131.071L152.631 127.679L156.09 130.26L162.198 132.534L168.722 131.981L172.633 129.976L176.923 129.423L183.192 133.094L189.513 133.686L192.489 131.599L195.969 132.778Z" fill="#BACE6B" stroke="#808080" stroke-width="0.5" stroke-linecap="round" stroke-linejoin="round"/>
<path d="M310.61 168.309L315.399 171.888L321.746 172.512L326.254 170.75L330.378 169.863L334.419 180.008L340.075 178.903L343.051 186.069L347.082 192.775L352.702 198.211L360.919 198.78L367.427 208.796L377.441 215.388L377.82 215.956L378.204 216.519L373.737 218.175L368.813 220.727L360.82 224.508L355.153 231.059L353.652 225.574L348.837 222.727L344.879 224.131L342.713 228.065L333.135 230.66L328.954 238.449L328.777 252.887L316.753 262.729L314.935 277.347L326.736 291.13L323.853 300.498L318.617 307.149L314.379 311.041L311.299 314.464L302.407 314.349L293.302 314.573L296.148 302.511L288.523 293.275L276.255 287.042L267.685 275.439L265.42 255.967L254.866 248.788L253.162 244.25L249.838 240.87L250.721 236.173L249.241 231.678L255.1 228.788L261.712 225.925L274.224 219.893L284.763 211.925L287.209 206.235L291.536 205.994L296.813 207.022L296.221 200.932L297.67 193.731L294.502 188.185L288.357 186.484L283.495 182.77L284.929 178.459L289.905 177.069L300.002 171.756L310.61 168.309Z" fill="#FFEB64" stroke="#808080" stroke-width="0.5" stroke-linecap="round" stroke-linejoin="round"/>
<path d="M386.458 140.688L385.269 146.088L383.648 152.878L377.924 157.734L369.473 161.829L365.557 170.772L363.916 180.687L361.101 189.773L360.919 198.78L352.702 198.211L347.082 192.775L343.051 186.069L340.075 178.903L344.417 166.509L345.181 154.587L345.113 140.453L351.818 132.154L355.454 133.513L358.783 135.135L361.157 140.793L365.904 137.572L370.028 131.568L376.053 128.1L381.881 133.217L386.458 140.688Z" fill="#8EC79A" stroke="#808080" stroke-width="0.5" stroke-linecap="round" stroke-linejoin="round"/>
<path d="M390.769 141.072L397.9 145.393L404.72 150.015L407.088 156.728L407.67 163.992L410.158 172.918L417.144 178.012L423.252 178.794L425.989 183.712L435.769 191.966L449.575 195.444L463.079 201.781L477.004 204.465L486.821 199.796L498.985 202.683L498.995 208.407L493.661 211.965L490.498 214.069L487.782 217.447L487.06 224.064L483.107 227.828L469.93 227.32L459.158 228.593L458.743 230.953L458.483 234.225L455.439 238.24L450.032 238.049L451.876 232.216L452.556 226.584L448.276 223.858L443.295 222.312L436.803 221.864L430.617 221.793L425.87 220.318L421.341 218.214L416.111 215.842L410.408 215.41L401.604 214.388L392.707 214.541L388.567 215.279L384.35 214.508L380.46 213.442L376.726 214.666L377.354 214.491L377.442 215.387L367.428 208.795L360.92 198.779L361.102 189.772L363.917 180.686L365.558 170.771L369.474 161.828L377.925 157.733L383.649 152.877L385.27 146.087L386.459 140.687L388.63 140.66L390.769 141.072Z" fill="#F8A758" stroke="#808080" stroke-width="0.5" stroke-linecap="round" stroke-linejoin="round"/>
<path d="M323.917 136.739L323.065 141.028L320.063 144.396L317.321 148.93L316.168 154.225L316.739 159.037L316.687 163.712L313.591 166.082L310.61 168.309L300.004 171.751L289.907 177.064L284.931 178.454L283.497 182.765L288.359 186.479L294.504 188.18L297.672 193.726L296.223 200.927L296.815 207.017L291.538 205.989L287.211 206.23L284.765 211.92L274.226 219.888L261.714 225.92L255.102 228.783L249.243 231.673L250.723 236.168L249.84 240.865L244.63 239.221L239.415 237.577L234.507 238.669L229.895 240.93L220.826 238.112L211.872 232.377L208.049 228.946L207.436 223.701L205.717 220.565L202.367 218.838L194.15 214.81L186.593 210.361L187.658 203.714L187.377 197.273L184.053 194.134L183.336 189.682L183.902 183.156L184.572 176.75L187.392 172.898L191.059 169.861L193.536 166.988L196.632 164.936L200.413 165.33L204.21 165.128L211.482 161.669L219.185 159.069L217.461 156.978L214.807 155.1L215.238 150.901L217.887 147.287L223.476 150.386L229.324 152.85L232.269 153.518L235.173 153.135L237.074 150.386L238.866 148.13L247.161 151.689L256.001 151.634L256.801 147.878L252.215 144.428L253.612 138.327L253.799 132.498L250.813 130.657L247.904 129.254L246.294 125.44L245.936 121.177L250.927 124.701L256.074 124.027L258.998 117.56L260.312 110.456L266.576 111.92L272.149 113.521L276.678 117.374L281.15 121.342L290.136 120.931L290.863 108.472L301.594 113.219L305.77 123.32L311.676 132.859L323.917 136.739Z" fill="#E89BBD" stroke="#808080" stroke-width="0.5" stroke-linecap="round" stroke-linejoin="round"/>
<path d="M125.455 320.069L134.919 323.551L144.86 325.545L153.887 330.105L163.673 330.857L168.005 328.084L172.643 326.515L178.195 327.125L183.706 326.166L193.258 323.317L200.571 327.419L210.118 337.038L222.667 341.373L229.004 342.522L234.349 346.088L234.281 349.823L230.032 351.424L226.079 346.399L223.394 351.876L220.252 357.053L215.063 360.847L208.898 363.089L205.662 365.718L203.377 369.195L200.126 371.42L196.76 373.531L193.238 379.064L192.641 385.89L185.411 386.39L179.812 381.783L174.592 372.034L164.973 371.436L157.27 374.445L149.484 372.47L142.212 368.014L134.504 364.542L113.873 356.487L108.232 338.089L110.486 333.672L111.847 328.917L111.525 326.237L112.491 323.905L118.926 321.856L125.455 320.069Z" fill="#E89BBD" stroke="#808080" stroke-width="0.5" stroke-linecap="round" stroke-linejoin="round"/>
<path d="M167.189 205.941L175.889 210.254L186.594 210.363L194.151 214.812L202.368 218.84L205.718 220.567L207.437 223.703L208.05 228.948L211.873 232.379L220.827 238.114L229.896 240.932L234.508 238.671L239.416 237.579L244.631 239.223L249.841 240.867L253.165 244.247L254.869 248.785L253.186 253.311L248.979 255.385L248.174 259.479L245.343 262.181L240.409 265.625L237.968 270.918L236.628 281.382L236.524 292.252L234.955 295.84L232.207 298.473L229.283 297.274L227.59 293.626L221.051 295.671L222.323 303.615L222.084 306.291L219.986 309.147L221.321 311.452L221.778 314.166L217.981 315.954L214.693 317.202L209.4 325.054L200.57 327.418L193.257 323.316L183.705 326.165L178.194 327.124L172.642 326.514L168.004 328.083L163.672 330.856L153.886 330.104L144.859 325.544L134.918 323.55L125.454 320.068L128.316 313.36L125.994 307.365L120.561 306.089L116.832 302.12L116.842 296.935L115.398 292.087L111.316 288.531L106.777 285.586L109.187 275.303L105.702 270.889L107.39 259.478L112.376 248.931L116.812 244.918L122.494 244.345L128.716 242.527L131.864 235.837L134.222 226.823L138.289 219.201L145.109 220.289L151.414 224.119L159.07 223.687L165.386 218.862L165.791 212.32L167.189 205.941Z" fill="#AC8FC7" stroke="#808080" stroke-width="0.5" stroke-linecap="round" stroke-linejoin="round"/>
<path d="M355.154 231.057L357.45 236.055L359.273 240.965L360.218 246.677L365.308 249.129L367.147 251.477L367.765 254.583L370.923 258.754L375.135 261.827L383.778 267.977L389.019 277.024L384.885 281.617L383.524 288.222L376.647 291.521L373.801 297.53L371.085 305.566L363.658 305.435L358.511 301.848L353.151 299.689L348.289 301.423L343.266 301.963L335.179 296.031L326.739 291.129L314.938 277.346L316.756 262.728L328.78 252.886L328.957 238.448L333.138 230.659L342.716 228.064L344.882 224.13L348.84 222.726L353.655 225.573L355.154 231.057Z" fill="#89B8E4" stroke="#808080" stroke-width="0.5" stroke-linecap="round" stroke-linejoin="round"/>
<path d="M389.019 277.023L383.778 267.976L375.135 261.826L370.923 258.753L367.765 254.582L367.147 251.476L365.308 249.128L360.218 246.676L359.273 240.964L357.45 236.054L355.154 231.056L360.821 224.505L368.814 220.724L373.738 218.172L378.205 216.516L377.821 215.953L377.442 215.385L377.354 214.489L376.726 214.664L380.46 213.44L384.35 214.506L388.567 215.277L392.707 214.539L401.604 214.386L410.408 215.408L416.111 215.84L421.341 218.212L425.87 220.316L430.617 221.791L436.803 221.862L443.295 222.31L448.276 223.856L452.556 226.582L451.876 232.214L450.032 238.047L447.019 251.633L443.555 265.361L437.925 269.71L431.386 266.507L427.366 265.77L424.899 269.47L421.32 268.897L417.108 268.057L411.81 269.356L407.961 272.766L399.443 274.817L389.019 277.023Z" fill="#AC8FC7" stroke="#808080" stroke-width="0.5" stroke-linecap="round" stroke-linejoin="round"/>
<path d="M326.738 291.129L335.178 296.031L343.265 301.963L348.288 301.423L353.15 299.689L358.51 301.848L363.657 305.435L359.891 314.009L359.2 323.114L360.062 330.556L357.87 338.002L359.324 344.836L362.342 351.097L358.021 355.762L352.978 359.24L343.146 362.119L337.713 370.129L333.288 361.384L329.112 354.221L322.625 350.911L315.935 346.544L311.271 344.894L307.781 341.545L306.259 338.414L303.288 336.6L299.081 325.929L293.305 314.568L302.41 314.344L311.302 314.459L314.382 311.036L318.62 307.144L323.856 300.493L326.738 291.129Z" fill="#AC8FC7" stroke="#808080" stroke-width="0.5" stroke-linecap="round" stroke-linejoin="round"/>
<path d="M383.524 288.222L384.885 281.617L389.019 277.024L399.443 274.82L407.961 272.769L411.81 269.359L417.108 268.06L421.32 268.9L424.899 269.473L427.366 265.773L431.386 266.51L437.925 269.713L443.555 265.364L447.019 251.636L450.032 238.05L455.439 238.241L458.483 234.226L458.743 230.954L459.158 228.594L469.93 227.321L483.107 227.829L488.825 232.21L494.601 236.509L500.969 240.119L506.817 244.466L516.099 252.743L527.547 258.524L537.639 263.513L547.471 268.894L554.758 269.843L558.472 273.57L554.644 276.211L550.515 278.759L546.323 283.123L542.744 288.043L530.845 300.525L519.382 320.61L512.188 317.864L505.358 319.33L501.572 321.782L497.188 322.714L485.507 327.04L476.236 336.714L474.626 330.755L470.403 326.68L469.271 322.496L466.487 318.824L461.927 313.68L456.479 309.407L451.82 309.167L447.156 308.971L444.611 309.091L442.243 309.892L441.318 311.772L440.783 313.712L432.254 317.657L422.749 315.799L416.158 314.017L409.754 311.652L406.072 305.04L400.411 303.007L395.56 299.414L390.35 296.502L386.849 292.445L383.524 288.222Z" fill="#E89BBD" stroke="#808080" stroke-width="0.5" stroke-linecap="round" stroke-linejoin="round"/>
<path d="M399.5 178C378.584 178 361.625 196.134 361.625 218.5C361.625 227.307 364.325 235.389 368.813 242.007C368.894 242.166 368.906 242.343 368.998 242.495L394.248 282.995C395.419 284.873 397.392 286 399.5 286C401.608 286 403.581 284.873 404.752 282.995L430.002 242.495C430.095 242.343 430.106 242.166 430.187 242.007C434.675 235.389 437.375 227.307 437.375 218.5C437.375 196.134 420.416 178 399.5 178ZM399.5 232C392.528 232 386.875 225.955 386.875 218.5C386.875 211.045 392.528 205 399.5 205C406.472 205 412.125 211.045 412.125 218.5C412.125 225.955 406.472 232 399.5 232Z" fill="black"/>
<path d="M246.424 536.104C247.149 536.189 247.981 536.253 248.92 536.296C249.901 536.339 250.968 536.36 252.12 536.36C253.571 536.36 255 536.296 256.408 536.168C257.859 535.997 259.224 535.677 260.504 535.208C261.827 534.696 263.043 533.992 264.152 533.096C265.304 532.157 266.328 530.941 267.224 529.448C268.589 527.144 269.528 524.797 270.04 522.408C270.595 519.976 270.872 517.331 270.872 514.472C270.872 511.101 270.552 508.051 269.912 505.32C269.272 502.547 268.205 500.2 266.712 498.28C265.261 496.317 263.32 494.803 260.888 493.736C258.456 492.669 255.448 492.136 251.864 492.136C250.797 492.136 249.816 492.157 248.92 492.2C248.067 492.243 247.235 492.285 246.424 492.328V536.104ZM232.92 536.104H240.024V492.328H232.92V491.432H244.824C245.421 491.432 246.019 491.432 246.616 491.432C247.213 491.389 247.811 491.347 248.408 491.304C249.005 491.304 249.603 491.304 250.2 491.304C250.797 491.261 251.395 491.24 251.992 491.24C253.272 491.24 254.403 491.261 255.384 491.304C256.408 491.347 257.347 491.432 258.2 491.56C259.096 491.645 259.928 491.795 260.696 492.008C261.507 492.179 262.36 492.413 263.256 492.712C265.859 493.565 268.099 494.717 269.976 496.168C271.896 497.576 273.453 499.219 274.648 501.096C275.885 502.973 276.781 505.021 277.336 507.24C277.933 509.459 278.232 511.784 278.232 514.216C278.232 517.032 277.891 519.571 277.208 521.832C276.525 524.051 275.587 526.035 274.392 527.784C273.197 529.491 271.789 530.984 270.168 532.264C268.589 533.501 266.883 534.504 265.048 535.272C264.024 535.741 263.043 536.104 262.104 536.36C261.208 536.616 260.269 536.808 259.288 536.936C258.349 537.064 257.304 537.149 256.152 537.192C255 537.235 253.677 537.256 252.184 537.256C251.544 537.256 250.861 537.235 250.136 537.192C249.411 537.192 248.685 537.171 247.96 537.128C247.235 537.085 246.509 537.043 245.784 537C245.101 537 244.44 537 243.8 537H232.92V536.104ZM289.14 494.632C289.14 493.693 289.46 492.904 290.1 492.264C290.782 491.581 291.593 491.24 292.532 491.24C293.47 491.24 294.26 491.581 294.9 492.264C295.582 492.904 295.924 493.693 295.924 494.632C295.924 495.571 295.582 496.381 294.9 497.064C294.26 497.704 293.47 498.024 292.532 498.024C291.593 498.024 290.782 497.704 290.1 497.064C289.46 496.381 289.14 495.571 289.14 494.632ZM284.98 536.104H289.908V510.44H284.98V509.544H295.412V536.104H300.34V537H284.98V536.104ZM305.709 528.04H306.413C306.712 529.064 307.096 530.109 307.565 531.176C308.034 532.2 308.653 533.16 309.421 534.056C310.232 534.909 311.213 535.613 312.365 536.168C313.517 536.723 314.904 537 316.525 537C317.89 537 319.106 536.595 320.173 535.784C321.24 534.931 321.773 533.565 321.773 531.688C321.773 530.067 321.346 528.936 320.493 528.296C319.682 527.613 318.722 527.08 317.613 526.696L312.621 524.968C311.981 524.755 311.277 524.499 310.509 524.2C309.784 523.859 309.101 523.411 308.461 522.856C307.821 522.259 307.288 521.512 306.861 520.616C306.477 519.72 306.285 518.568 306.285 517.16C306.285 515.965 306.52 514.856 306.989 513.832C307.458 512.808 308.098 511.912 308.909 511.144C309.72 510.376 310.68 509.779 311.789 509.352C312.941 508.925 314.178 508.712 315.501 508.712C316.44 508.712 317.186 508.797 317.741 508.968C318.338 509.096 318.85 509.245 319.277 509.416C319.704 509.544 320.088 509.693 320.429 509.864C320.77 509.992 321.176 510.056 321.645 510.056C322.114 510.056 322.456 509.885 322.669 509.544H323.373V516.84H322.669C322.37 515.901 322.029 515.005 321.645 514.152C321.261 513.256 320.792 512.467 320.237 511.784C319.725 511.101 319.064 510.568 318.253 510.184C317.485 509.8 316.568 509.608 315.501 509.608C313.453 509.608 311.853 510.077 310.701 511.016C309.592 511.912 309.037 513.128 309.037 514.664C309.037 516.029 309.506 517.075 310.445 517.8C311.426 518.483 312.856 519.123 314.733 519.72L319.405 521.256C321.41 521.939 323.053 522.877 324.333 524.072C325.613 525.267 326.253 526.845 326.253 528.808C326.253 529.96 326.018 531.091 325.549 532.2C325.122 533.309 324.461 534.291 323.565 535.144C322.712 535.955 321.645 536.616 320.365 537.128C319.128 537.64 317.698 537.896 316.077 537.896C315.138 537.896 314.264 537.789 313.453 537.576C312.685 537.405 311.96 537.213 311.277 537C310.637 536.787 310.04 536.595 309.485 536.424C308.93 536.211 308.418 536.104 307.949 536.104C307.48 536.104 307.138 536.211 306.925 536.424C306.712 536.595 306.541 536.787 306.413 537H305.709V528.04ZM357.919 529.96C357.791 530.429 357.535 531.112 357.151 532.008C356.81 532.861 356.234 533.736 355.423 534.632C354.655 535.485 353.588 536.253 352.223 536.936C350.9 537.576 349.172 537.896 347.039 537.896C345.418 537.896 343.732 537.64 341.983 537.128C340.234 536.616 338.634 535.805 337.183 534.696C335.732 533.544 334.538 532.051 333.599 530.216C332.703 528.381 332.255 526.12 332.255 523.432C332.255 521.341 332.639 519.4 333.407 517.608C334.218 515.816 335.284 514.259 336.607 512.936C337.972 511.613 339.551 510.589 341.343 509.864C343.178 509.096 345.119 508.712 347.167 508.712C348.319 508.712 349.492 508.861 350.687 509.16C351.924 509.416 353.034 509.843 354.015 510.44C355.039 510.995 355.871 511.741 356.511 512.68C357.194 513.576 357.535 514.685 357.535 516.008C357.535 516.904 357.236 517.651 356.639 518.248C356.084 518.803 355.274 519.08 354.207 519.08C353.482 519.08 352.778 518.931 352.095 518.632C351.455 518.291 351.135 517.736 351.135 516.968C351.135 516.371 351.284 515.645 351.583 514.792C351.882 513.939 352.031 513.235 352.031 512.68C352.031 511.699 351.54 510.952 350.559 510.44C349.578 509.885 348.447 509.608 347.167 509.608C346.228 509.608 345.247 509.736 344.223 509.992C343.242 510.205 342.324 510.781 341.471 511.72C340.66 512.659 339.978 514.067 339.423 515.944C338.911 517.821 338.655 520.381 338.655 523.624C338.655 525.459 338.762 527.187 338.975 528.808C339.231 530.429 339.658 531.859 340.255 533.096C340.895 534.291 341.748 535.251 342.815 535.976C343.924 536.659 345.354 537 347.103 537C348.98 537 350.516 536.723 351.711 536.168C352.948 535.613 353.908 534.952 354.591 534.184C355.316 533.373 355.85 532.563 356.191 531.752C356.532 530.941 356.788 530.28 356.959 529.768L357.919 529.96ZM369.468 523.304C369.468 526.333 369.702 528.744 370.172 530.536C370.641 532.328 371.26 533.715 372.028 534.696C372.796 535.635 373.692 536.253 374.716 536.552C375.74 536.851 376.828 537 377.98 537C379.132 537 380.22 536.851 381.244 536.552C382.268 536.253 383.164 535.635 383.932 534.696C384.7 533.715 385.318 532.328 385.788 530.536C386.257 528.744 386.492 526.333 386.492 523.304C386.492 520.744 386.321 518.611 385.98 516.904C385.638 515.155 385.105 513.747 384.38 512.68C383.697 511.571 382.822 510.781 381.756 510.312C380.689 509.843 379.43 509.608 377.98 509.608C376.529 509.608 375.27 509.843 374.204 510.312C373.137 510.781 372.241 511.571 371.516 512.68C370.833 513.747 370.321 515.155 369.98 516.904C369.638 518.611 369.468 520.744 369.468 523.304ZM363.068 523.304C363.068 521.213 363.516 519.272 364.411 517.48C365.35 515.688 366.524 514.152 367.932 512.872C369.382 511.549 370.982 510.525 372.732 509.8C374.524 509.075 376.273 508.712 377.98 508.712C379.686 508.712 381.414 509.075 383.164 509.8C384.956 510.525 386.556 511.549 387.964 512.872C389.414 514.152 390.588 515.688 391.484 517.48C392.422 519.272 392.892 521.213 392.892 523.304C392.892 525.309 392.465 527.208 391.612 529C390.758 530.749 389.628 532.285 388.22 533.608C386.854 534.931 385.276 535.976 383.484 536.744C381.692 537.512 379.857 537.896 377.98 537.896C376.102 537.896 374.268 537.512 372.476 536.744C370.684 535.976 369.084 534.931 367.676 533.608C366.31 532.285 365.201 530.749 364.348 529C363.494 527.208 363.068 525.309 363.068 523.304ZM393.973 509.544H409.461V510.44H404.213L412.469 530.536L421.045 510.44H415.797V509.544H425.525V510.44H422.069L409.973 539.112L398.325 510.44H393.973V509.544ZM447.841 520.232C447.926 519.635 447.969 519.08 447.969 518.568C447.969 518.056 447.969 517.523 447.969 516.968C447.969 515.517 447.819 514.323 447.521 513.384C447.265 512.445 446.881 511.699 446.369 511.144C445.899 510.589 445.302 510.205 444.577 509.992C443.894 509.736 443.147 509.608 442.337 509.608C440.886 509.608 439.691 509.907 438.753 510.504C437.814 511.059 437.067 511.827 436.513 512.808C435.958 513.789 435.531 514.92 435.233 516.2C434.977 517.48 434.806 518.824 434.72 520.232H447.841ZM434.657 521.128C434.657 521.555 434.635 522.003 434.593 522.472C434.593 522.899 434.593 523.453 434.593 524.136C434.593 525.544 434.678 527.016 434.849 528.552C435.019 530.088 435.382 531.475 435.937 532.712C436.534 533.949 437.387 534.973 438.497 535.784C439.649 536.595 441.163 537 443.041 537C444.918 537 446.454 536.723 447.649 536.168C448.886 535.613 449.846 534.952 450.529 534.184C451.254 533.373 451.787 532.563 452.129 531.752C452.47 530.941 452.726 530.28 452.897 529.768L453.857 529.96C453.729 530.429 453.473 531.112 453.089 532.008C452.747 532.861 452.171 533.736 451.361 534.632C450.593 535.485 449.526 536.253 448.161 536.936C446.838 537.576 445.11 537.896 442.977 537.896C440.843 537.896 438.859 537.555 437.025 536.872C435.233 536.189 433.675 535.208 432.353 533.928C431.03 532.648 430.006 531.133 429.281 529.384C428.555 527.592 428.193 525.608 428.193 523.432C428.193 521.555 428.555 519.741 429.281 517.992C430.049 516.2 431.073 514.621 432.353 513.256C433.675 511.891 435.211 510.803 436.961 509.992C438.71 509.139 440.587 508.712 442.593 508.712C443.787 508.712 445.067 508.925 446.433 509.352C447.798 509.779 449.057 510.483 450.209 511.464C451.403 512.403 452.385 513.661 453.153 515.24C453.963 516.819 454.369 518.781 454.369 521.128H434.657ZM459.041 536.104H463.969V510.44H459.041V509.544H469.345V516.008H469.473C469.643 515.368 469.921 514.643 470.305 513.832C470.689 513.021 471.222 512.253 471.905 511.528C472.587 510.76 473.398 510.12 474.337 509.608C475.318 509.096 476.491 508.84 477.857 508.84C478.838 508.84 479.691 509.011 480.417 509.352C481.142 509.651 481.739 510.056 482.209 510.568C482.678 511.037 483.019 511.592 483.233 512.232C483.446 512.872 483.553 513.512 483.553 514.152C483.553 515.56 483.233 516.499 482.593 516.968C481.953 517.437 481.206 517.672 480.353 517.672C478.475 517.672 477.537 517.075 477.537 515.88C477.537 515.496 477.579 515.197 477.665 514.984C477.75 514.728 477.835 514.493 477.921 514.28C478.049 514.024 478.155 513.747 478.241 513.448C478.326 513.149 478.369 512.723 478.369 512.168C478.369 510.803 477.622 510.12 476.128 510.12C475.446 510.12 474.721 510.376 473.953 510.888C473.185 511.4 472.459 512.147 471.777 513.128C471.137 514.109 470.582 515.304 470.113 516.712C469.686 518.077 469.473 519.656 469.473 521.448V536.104H475.041V537H459.041V536.104ZM498.799 512.104H504.687C505.882 512.104 506.97 511.955 507.951 511.656C508.932 511.357 509.764 510.845 510.447 510.12C511.172 509.352 511.727 508.328 512.111 507.048C512.495 505.768 512.687 504.147 512.687 502.184C512.687 499.965 512.388 498.195 511.791 496.872C511.236 495.507 510.49 494.483 509.551 493.8C508.655 493.117 507.631 492.669 506.479 492.456C505.37 492.243 504.26 492.136 503.151 492.136C502.383 492.136 501.594 492.157 500.783 492.2C500.015 492.2 499.354 492.243 498.799 492.328V512.104ZM485.295 536.104H492.399V492.328H485.295V491.432H497.455C497.967 491.432 498.479 491.432 498.991 491.432C499.503 491.389 500.015 491.347 500.527 491.304C501.039 491.304 501.551 491.304 502.063 491.304C502.575 491.261 503.087 491.24 503.599 491.24C506.116 491.24 508.335 491.389 510.255 491.688C512.175 491.944 513.967 492.733 515.631 494.056C517.124 495.208 518.17 496.509 518.767 497.96C519.407 499.411 519.727 500.776 519.727 502.056C519.727 502.696 519.599 503.528 519.343 504.552C519.13 505.533 518.618 506.557 517.807 507.624C517.039 508.648 515.908 509.608 514.415 510.504C512.922 511.357 510.938 511.933 508.463 512.232V512.36C509.146 512.445 510.063 512.616 511.215 512.872C512.41 513.085 513.604 513.469 514.799 514.024C516.036 514.579 517.167 515.325 518.191 516.264C519.215 517.16 519.94 518.333 520.367 519.784C520.623 520.637 520.794 521.619 520.879 522.728C521.007 523.795 521.092 524.904 521.135 526.056C521.22 527.208 521.284 528.317 521.327 529.384C521.412 530.451 521.54 531.347 521.711 532.072C521.967 533.181 522.372 534.184 522.927 535.08C523.482 535.976 524.378 536.424 525.615 536.424C526.17 536.424 526.746 536.317 527.343 536.104C527.94 535.891 528.474 535.549 528.943 535.08L529.519 535.784C529.306 535.955 529.05 536.147 528.751 536.36C528.495 536.531 528.154 536.701 527.727 536.872C527.3 537.043 526.767 537.171 526.127 537.256C525.53 537.384 524.783 537.448 523.887 537.448C522.18 537.448 520.751 537.235 519.599 536.808C518.49 536.381 517.594 535.763 516.911 534.952C516.228 534.099 515.716 533.075 515.375 531.88C515.076 530.643 514.863 529.213 514.735 527.592L514.287 521.768C514.116 519.635 513.69 517.971 513.007 516.776C512.324 515.581 511.514 514.707 510.575 514.152C509.679 513.597 508.74 513.277 507.759 513.192C506.778 513.064 505.924 513 505.199 513H498.799V536.104H505.903V537H485.295V536.104ZM539.291 522.344C539.291 524.563 539.355 526.589 539.483 528.424C539.611 530.216 539.931 531.752 540.443 533.032C540.955 534.312 541.723 535.293 542.747 535.976C543.771 536.659 545.157 537 546.907 537C548.699 537 550.128 536.616 551.195 535.848C552.304 535.08 553.157 534.099 553.755 532.904C554.352 531.667 554.757 530.301 554.971 528.808C555.184 527.315 555.291 525.864 555.291 524.456C555.291 522.792 555.248 521.363 555.163 520.168C555.12 518.931 555.013 517.843 554.843 516.904C554.672 515.965 554.437 515.155 554.139 514.472C553.84 513.789 553.477 513.149 553.051 512.552C552.411 511.699 551.579 510.995 550.555 510.44C549.531 509.885 548.229 509.608 546.651 509.608C545.157 509.608 543.92 509.907 542.939 510.504C542 511.101 541.253 511.955 540.699 513.064C540.187 514.173 539.824 515.517 539.611 517.096C539.397 518.632 539.291 520.381 539.291 522.344ZM550.363 490.856H560.795V536.104H565.722V537H555.419V531.432H555.291C555.12 531.944 554.864 532.563 554.523 533.288C554.181 534.013 553.669 534.717 552.987 535.4C552.347 536.083 551.515 536.659 550.491 537.128C549.509 537.64 548.293 537.896 546.843 537.896C544.965 537.896 543.173 537.491 541.467 536.68C539.803 535.869 538.331 534.781 537.051 533.416C535.771 532.051 534.747 530.493 533.979 528.744C533.253 526.952 532.891 525.075 532.891 523.112C532.891 521.192 533.253 519.357 533.979 517.608C534.704 515.859 535.685 514.344 536.923 513.064C538.16 511.741 539.589 510.696 541.211 509.928C542.832 509.117 544.56 508.712 546.395 508.712C548.741 508.712 550.64 509.288 552.091 510.44C553.541 511.592 554.565 513 555.163 514.664H555.291V491.752H550.363V490.856Z" fill="black"/>
</svg>
