<?xml version="1.0" encoding="iso-8859-1"?>
<!-- Uploaded to: SVG Repo, www.svgrepo.com, Generator: SVG Repo Mixer Tools -->
<!DOCTYPE svg PUBLIC "-//W3C//DTD SVG 1.1//EN" "http://www.w3.org/Graphics/SVG/1.1/DTD/svg11.dtd">
<svg fill="#000000" version="1.1" id="Capa_1" xmlns="http://www.w3.org/2000/svg" xmlns:xlink="http://www.w3.org/1999/xlink" 
	 width="800px" height="800px" viewBox="0 0 481.11 481.111"
	 xml:space="preserve">
<g>
	<g>
		<path d="M314.33,382.87h-25.625v-40.405c0-6.29-5.1-11.389-11.388-11.389H48.403c-6.29,0-11.389,5.099-11.389,11.389v40.405
			H11.389C5.099,382.87,0,387.968,0,394.258v66.055c0,6.29,5.099,11.39,11.389,11.39H314.33c6.289,0,11.389-5.101,11.389-11.39
			v-66.055C325.719,387.968,320.619,382.87,314.33,382.87z"/>
		<path d="M474.439,320.863L315.326,161.746l10.064-10.066l4.422,4.423c4.449,4.448,11.66,4.447,16.107,0l39.459-39.459
			c4.445-4.447,4.449-11.659,0-16.106l-87.793-87.795c-4.447-4.448-11.658-4.447-16.105,0l-39.459,39.46
			c-4.448,4.447-4.448,11.659,0,16.106l4.422,4.422l-52.346,52.346l-4.422-4.423c-4.446-4.447-11.658-4.447-16.106,0l-39.459,39.46
			c-4.448,4.447-4.448,11.659,0,16.106l87.792,87.793c4.448,4.447,11.66,4.447,16.106,0l39.46-39.46
			c4.446-4.448,4.446-11.658,0-16.106l-4.422-4.422l10.064-10.066l159.115,159.115c8.895,8.896,23.316,8.896,32.211,0
			C483.334,344.178,483.334,329.757,474.439,320.863z"/>
	</g>
</g>
</svg>